<svg width="289" height="100" viewBox="0 0 289 100" fill="none" xmlns="http://www.w3.org/2000/svg">
  <path d="M39.6094 26.4891C39.1016 26.1158 38.6914 25.7424 38.711 25.6387C38.711 25.5557 39.1211 25.535 39.6289 25.5972C40.1172 25.6802 41.0547 25.9291 41.6993 26.1365C42.3438 26.3647 43.3985 26.904 44.043 27.3603C44.7657 27.8581 47.793 30.9072 51.875 35.2838C55.586 39.2456 58.7696 42.834 59.043 43.3526C59.336 43.8711 59.7461 44.846 59.961 45.5305C60.2149 46.2565 60.4297 47.5425 60.4883 48.6419C60.5664 49.9901 60.5078 50.9028 60.2539 51.9606C60.0782 52.7696 59.6094 54.0556 59.2188 54.8645C58.6133 56.1298 57.6563 57.2499 52.0508 63.2237C48.5157 67.0402 44.9024 70.7116 44.043 71.4169C43.1836 72.1014 41.6993 73.0762 40.7227 73.5533C39.7657 74.0511 38.2618 74.6319 37.4024 74.8808C36.543 75.1297 35.7032 75.2957 35.5469 75.2542C35.3711 75.1919 35.6055 74.9845 36.1328 74.6941C36.6211 74.4245 37.6368 73.7607 38.3789 73.2007C39.2383 72.5784 42.3828 69.3841 46.9922 64.4682C53.711 57.2706 54.2774 56.6276 54.9414 55.1757C55.3321 54.3252 55.7813 52.977 55.9571 52.168C56.1133 51.3591 56.25 50.0731 56.25 49.2641C56.25 48.4552 56.0742 47.0862 55.8594 46.1528C55.625 45.2401 55.1368 43.8504 54.7461 43.0415C54.1211 41.7762 53.1446 40.6354 47.2852 34.3712C43.5547 30.4094 40.1172 26.8625 39.6094 26.4891Z" fill="#27ADE2" />
  <path d="M7.42188 59.6358L8.35938 58.6402L9.27734 57.6653L23.1445 72.3923L21.2891 74.3628L7.42188 59.6358Z" fill="#CDD2E1" />
  <path d="M88.7695 59.7188L89.7461 58.6816L90.7227 57.6445L93.9062 61.0255C95.6445 62.8716 97.0703 64.4895 97.0703 64.5932C97.0703 64.7176 96.0156 65.9207 94.7266 67.2897C93.418 68.6587 92.2461 70.0484 92.0898 70.3595C91.8555 70.8159 91.8555 71.0855 92.0117 71.7078C92.2266 72.4752 92.2266 72.4752 91.0938 73.6576L91.0849 73.6664C89.9803 74.7779 89.94 74.8183 89.4141 74.5287C89.1211 74.3835 88.6719 74.3006 88.4375 74.3835C88.1836 74.4458 86.9531 75.5866 83.3984 79.3202L81.543 77.3497L92.5781 65.6303V64.6969C92.5781 63.805 92.5 63.7013 88.7695 59.7188Z" fill="#CDD2E1" />
  <path d="M46.6016 6.74281C48.0273 2.73955 48.8281 0.78978 49.1602 0.478646V0.457904C49.4141 0.208997 49.7852 0.00157431 49.9609 0.00157431C50.1367 -0.0191679 50.5273 0.167512 50.8398 0.416419C51.2305 0.727553 51.3672 0.997203 51.3672 1.55724C51.3672 1.97209 50.7422 3.9426 49.9609 6.12054C49.1797 8.23625 48.5742 9.99934 48.6328 10.0616C48.6914 10.1031 49.7852 9.77118 51.0742 9.31485C52.3633 8.85852 53.7305 8.48516 54.1016 8.48516C54.5898 8.46441 54.8828 8.60961 55.1367 8.96223C55.332 9.21114 55.4883 9.60524 55.4688 9.79192C55.4688 9.99934 54.5312 12.7581 53.3984 15.9109C52.2656 19.0844 51.2305 21.8017 51.1133 21.9676C50.9766 22.1128 50.6836 22.341 50.4492 22.424C50.1758 22.5277 49.7852 22.5277 49.4727 22.4032C49.1602 22.2995 48.8086 21.9469 48.6719 21.6357C48.4375 21.0964 48.5352 20.7231 49.9023 16.9687C50.7031 14.7078 51.3672 12.7581 51.3672 12.6544C51.3672 12.5506 50.1562 12.8825 48.6914 13.4011C47.0117 14.0026 45.8203 14.3137 45.5664 14.2308C45.3125 14.1685 44.9805 13.9611 44.8242 13.7952C44.668 13.6292 44.5312 13.2766 44.5312 13.0277C44.5312 12.7581 45.4492 9.93712 46.6016 6.74281Z" fill="white" />
  <path d="M33.2031 23.4611C33.7891 23.2122 34.8438 22.8803 35.5469 22.7351C36.25 22.5899 37.4023 22.4447 38.1445 22.4447C38.8672 22.424 40.1367 22.5691 40.9766 22.7558C41.7969 22.9425 42.9297 23.2744 43.457 23.5233C44.0039 23.7515 44.9219 24.27 45.5078 24.6641C46.0938 25.0582 47.3438 26.1783 49.9805 28.9578L51.8945 26.9873C53.2031 25.639 54.2383 24.7678 55.1758 24.2493C55.9375 23.8344 57.2461 23.2744 58.1055 23.0462C59.1992 22.7351 60.2734 22.5899 61.7188 22.5899C63.2617 22.5692 64.1406 22.6729 65.293 23.0047C66.1133 23.2536 67.2656 23.71 67.832 24.0004C68.3789 24.3115 69.2383 24.8301 69.7266 25.1827C70.2148 25.5353 71.9727 27.2362 76.6602 32.1313L77.6367 31.9654C78.1836 31.8617 79.1406 31.8617 79.8438 31.9861C80.5078 32.0898 81.5625 32.4217 82.1875 32.7121C83.0664 33.127 83.9062 33.8737 86.2891 36.3835C87.9297 38.1258 89.668 40.1378 90.1367 40.8846C90.6055 41.6313 91.25 42.9173 91.582 43.747C91.9141 44.5559 92.3242 45.8212 92.4805 46.5472C92.6367 47.2524 92.8125 48.5799 92.8906 49.4926C92.9688 50.6334 92.9102 51.7535 92.3828 55.093L95.8789 58.8266C97.793 60.8801 99.5117 62.8714 99.6875 63.2447C99.8633 63.5973 100 64.2611 100 64.6967C100 65.153 99.7852 65.8582 99.4336 66.5013C99.1211 67.082 97.7539 68.6792 96.4062 70.0897C94.4727 72.0809 93.8281 72.6202 93.418 72.6202C93.1055 72.6202 92.6953 72.4958 92.4805 72.3506C92.2656 72.1846 92.0312 71.8113 91.9531 71.5209C91.8555 71.1683 91.8945 70.7534 92.0703 70.4008C92.2266 70.0689 93.418 68.6999 94.707 67.3309C96.0156 65.962 97.0703 64.7589 97.0703 64.6345C97.0703 64.51 95.6445 62.9128 90.7227 57.6858L76.8555 72.4128L83.3984 79.3615L85.5859 77.0591C86.7969 75.773 87.9883 74.6322 88.2422 74.5078C88.4766 74.3833 88.8867 74.3418 89.1992 74.4455C89.4727 74.5285 89.8242 74.7774 89.9805 75.0056C90.1172 75.2337 90.2344 75.7108 90.2344 76.0427C90.2148 76.582 89.5703 77.3494 85.8789 81.2905C82.7539 84.6092 81.2695 86.0612 80.5664 86.4346C80.0391 86.7042 79.375 86.9324 79.1016 86.9324C78.8281 86.9324 78.2227 86.725 77.7344 86.4968C77.1289 86.2064 75.7617 84.9204 69.9023 78.7392L67.6172 78.7184C66.3672 78.6977 64.5898 78.5525 63.6719 78.3658C62.7539 78.1791 61.4062 77.8058 60.6445 77.5154C59.9023 77.2457 58.75 76.7687 58.1055 76.4783C57.4609 76.1671 56.1914 75.3789 55.2734 74.7359C54.3555 74.0929 52.793 72.7032 50 69.82L48.2812 71.5831C47.3438 72.558 45.8789 73.8648 45.0195 74.487C44.1602 75.0885 42.6758 76.0012 41.6992 76.499C40.7422 76.9761 39.1992 77.5984 38.2812 77.8887C37.3633 78.1584 35.6641 78.511 34.4727 78.6355C33.3008 78.7599 31.8359 78.8222 30.1758 78.6147L26.6602 82.3483C24.2188 84.9204 22.8711 86.2064 22.2656 86.4968C21.7773 86.725 21.1719 86.9324 20.8984 86.9324C20.625 86.9324 19.9805 86.7042 19.4336 86.4346C18.7305 86.0612 17.1875 84.5678 13.9062 81.0831C9.41406 76.3123 9.375 76.2501 9.41406 75.4412C9.45312 74.8604 9.60938 74.5078 9.96094 74.2174C10.3125 73.927 10.6055 73.8648 11.0352 73.9685C11.4258 74.0514 12.4414 74.9848 16.6016 79.3615L23.1445 72.4128L9.27734 57.6858L6.09375 61.0668C4.35547 62.9128 2.92969 64.51 2.92969 64.6345C2.92969 64.7589 3.90625 65.8582 5.09766 67.1235C6.28906 68.3888 7.38281 69.6956 7.51953 70.0274C7.69531 70.463 7.71484 70.7949 7.57812 71.1683C7.48047 71.4587 7.24609 71.7905 7.07031 71.9357C6.875 72.0809 6.50391 72.2054 6.21094 72.2054C5.78125 72.2054 5.17578 71.7076 3.39844 69.8822C2.14844 68.5962 0.878906 67.082 0.566406 66.5013C0.253906 65.9412 0 65.153 0 64.8004C0 64.427 0.136719 63.7633 0.3125 63.3484C0.488281 62.8506 1.875 61.212 7.65625 55.093L7.46094 54.1596C7.34375 53.6411 7.1875 52.5832 7.12891 51.7742C7.05078 50.9446 7.08984 49.5133 7.20703 48.4555C7.34375 47.4391 7.67578 45.8834 7.92969 45.033C8.20312 44.1826 8.78906 42.7721 9.23828 41.9217C9.86328 40.7394 10.8008 39.5571 13.2031 36.9435C15.7617 34.1641 16.6016 33.3966 17.5977 32.8573C18.2812 32.5047 19.4141 32.1106 20.1172 31.9861C20.8594 31.8824 21.7969 31.8617 23.3398 32.1313L25.2539 30.1816C26.6211 28.7918 27.2852 28.2318 27.6367 28.2318C27.9102 28.2318 28.3008 28.3148 28.5156 28.4392C28.7305 28.5637 29.0039 28.8748 29.1016 29.1652C29.2383 29.5178 29.2383 29.8704 29.082 30.2438C28.9844 30.5757 28.2031 31.5505 25.8789 34.0189L28.4375 36.7776C30.957 39.4741 31.0156 39.5571 31.4453 41.092C31.7969 42.295 31.8555 42.9173 31.7578 43.83C31.6992 44.4937 31.5625 45.199 31.4648 45.4064C31.3086 45.6968 32.1484 46.6924 36.4844 51.2972C39.9219 54.9271 41.9922 56.9806 42.5781 57.2917C43.2227 57.6443 43.9062 57.7895 45.1172 57.8517C46.4648 57.914 46.9922 57.8517 47.8516 57.4991C48.4375 57.2709 49.2969 56.7524 49.7656 56.3375C50.2148 55.9434 50.8203 55.5493 51.1328 55.4664C51.543 55.3627 51.7773 55.4664 52.207 55.8812C52.5195 56.2131 52.7344 56.6694 52.7344 57.0013C52.7539 57.4369 52.5 57.831 51.8555 58.4533C51.3672 58.9511 50.5664 59.5733 50.0586 59.843C49.5312 60.1126 48.6328 60.486 48.0469 60.6727C47.4609 60.8594 46.3086 61.0046 45.5078 61.0046C44.707 61.0046 43.5547 60.8594 42.9688 60.6934C42.3828 60.5275 41.4062 60.1334 40.8203 59.8222C40 59.3867 38.5547 57.9969 29.5898 48.5592L28.5156 49.1815C27.9297 49.5133 26.9141 49.8867 26.2695 49.9904C25.4883 50.1356 24.7461 50.1356 24.0234 49.9904C23.4375 49.866 22.5195 49.5133 22.0117 49.2229C21.4844 48.9118 20.3711 47.9162 19.5117 47.0035C18.3789 45.759 17.9883 45.199 17.9688 44.7634C17.9688 44.4315 18.1641 43.9959 18.457 43.6848C18.7109 43.3944 19.1602 43.1662 19.4336 43.1662C19.7852 43.1662 20.4297 43.664 21.6797 44.9293C22.8906 46.1324 23.6719 46.7546 24.1797 46.8998C24.5703 47.0035 25.0781 47.1072 25.293 47.1072C25.5078 47.1072 26.1328 46.8791 26.6602 46.6094C27.2852 46.2775 27.8516 45.7797 28.2227 45.2197C28.6133 44.6389 28.8281 44.0166 28.8867 43.3944C28.9258 42.7099 28.8281 42.1913 28.5547 41.6105C28.3398 41.1542 26.9727 39.5363 25.5469 38.0221C23.418 35.7612 22.8125 35.2427 22.168 35.0767C21.6797 34.973 21.0156 34.973 20.4102 35.0975C19.8828 35.2012 19.082 35.5123 18.6523 35.782C18.2227 36.0516 16.6797 37.5658 15.2148 39.163C13.3203 41.2164 12.3438 42.4402 11.8164 43.4773C11.3867 44.2655 10.8594 45.5931 10.625 46.3813C10.3906 47.1695 10.1367 48.5799 10.0586 49.4926C9.98047 50.6334 10.0391 51.712 10.5469 54.6782L17.3828 61.938L19.9609 59.2C21.543 57.5406 22.8516 56.3375 23.3008 56.1301C23.6914 55.9642 24.4727 55.819 25 55.819C25.5469 55.819 26.3086 55.9642 26.7188 56.1509C27.1094 56.3168 27.6953 56.7109 28.0078 57.022C28.3203 57.3332 28.7305 57.9554 28.9258 58.4118C29.1211 58.8681 29.2969 59.6978 29.2969 60.2786C29.2969 60.8801 29.1211 61.7098 28.8867 62.2491C28.6328 62.8506 27.5977 64.1366 23.5352 68.4718L30.1758 75.5034L31.3477 75.6278C31.9922 75.7108 33.3203 75.6693 34.2773 75.5241C35.2539 75.3997 36.6992 75.1093 37.5 74.8811C38.3008 74.653 39.7656 74.0722 40.7227 73.5744C41.6992 73.0973 43.1836 72.1224 44.043 71.4379C44.9023 70.7327 48.5156 67.0613 52.0508 63.2447C57.6562 57.2709 58.6133 56.1509 59.2188 54.8856C59.6094 54.0766 60.0781 52.7906 60.2539 51.9817C60.4883 50.9446 60.5664 50.0112 60.4883 48.6629C60.4297 47.4599 60.2148 46.319 59.9219 45.4479C59.668 44.7011 59.1797 43.6225 58.8477 43.0625C58.4961 42.4817 55.1562 38.7896 51.4258 34.8486C47.6172 30.8246 44.2383 27.4228 43.75 27.1324C43.2617 26.8213 42.3438 26.3857 41.6992 26.1576C41.0547 25.9294 39.8633 25.6597 39.0625 25.5975C38.1641 25.5146 37.0898 25.5768 36.3281 25.7427C35.625 25.8879 34.5703 26.2198 33.9844 26.4894C33.3984 26.7798 32.7539 26.9873 32.5781 26.9873C32.3828 26.9873 32.0117 26.7591 31.7383 26.4687C31.4648 26.1783 31.25 25.7012 31.25 25.3694C31.25 25.0375 31.4258 24.6226 31.6797 24.3737C31.9336 24.1456 32.6172 23.7307 33.2031 23.4611Z" fill="black" />
  <path d="M48.8672 78.0339C48.9648 77.8887 49.2383 77.6813 49.4727 77.5984C49.707 77.4947 50.0781 77.4739 50.293 77.5361C50.5078 77.5984 50.8398 77.8058 51.0352 77.9925C51.2305 78.1791 51.3867 78.6147 51.3672 78.9466C51.3672 79.2785 50.7617 81.2697 50 83.3647C49.2578 85.4389 48.6328 87.202 48.6328 87.3057C48.6523 87.3887 49.9023 87.0361 51.4258 86.5383C53.9844 85.6878 54.2383 85.6464 54.6875 85.916C54.9609 86.0819 55.2539 86.4553 55.3516 86.725C55.5078 87.1605 55.1562 88.3014 53.4375 93.1551C52.2656 96.4116 51.1328 99.274 50.8984 99.5437C50.6641 99.8133 50.2539 100 49.9609 100C49.5898 100 49.2383 99.7926 48.9258 99.3777C48.6523 99.0459 48.4375 98.6725 48.4375 98.548C48.4375 98.4236 49.1016 96.4946 49.9023 94.2544C50.7227 91.9935 51.3477 90.0852 51.3281 90.023C51.2891 89.9607 50.0391 90.3134 48.5352 90.8319C46.0352 91.6616 45.7617 91.7238 45.3125 91.4542C45.0391 91.309 44.7461 90.9356 44.6484 90.666C44.4922 90.2304 44.8438 89.0688 46.5625 84.2359C47.7148 80.9793 48.75 78.1999 48.8672 78.0339Z" fill="white" />
  <path d="M2.89058 64.6137C2.85151 64.51 3.84761 63.3692 5.07808 62.0831C6.30854 60.7971 7.36323 59.7393 7.42183 59.7393C7.48042 59.7393 10.625 63.0373 21.289 74.3625L16.6015 79.3407L14.121 76.7272C12.7343 75.2752 11.4062 74.0307 11.1328 73.9477C10.8398 73.8647 10.4296 73.927 10.0976 74.0929C9.57026 74.3625 9.51167 74.3211 8.39839 73.118C7.28511 71.8942 7.26558 71.8527 7.51948 71.2512C7.73433 70.7327 7.73433 70.5252 7.51948 70.0067C7.38276 69.6748 6.28901 68.368 5.09761 67.1028C3.9062 65.8375 2.91011 64.7381 2.89058 64.6137Z" fill="#F2F6FC" />
  <path d="M76.8554 72.392L82.8124 66.0656L88.7695 59.7393L90.664 61.7513C92.4999 63.7218 92.5585 63.8255 92.5781 65.6508L81.5429 77.3702L76.8554 72.392Z" fill="#F2F6FC" />
  <path d="M33.8867 26.5101C34.414 26.2612 35.2929 25.9501 35.8398 25.8049C36.3672 25.6597 37.2265 25.5352 37.7344 25.5352C38.2617 25.5145 38.6914 25.5767 38.7109 25.6804C38.75 25.7634 39.1992 26.1782 39.7461 26.5931C40.2734 27.0079 43.7109 30.5549 47.3633 34.4751C53.1445 40.6356 54.1211 41.7764 54.7461 43.0417C55.1367 43.8299 55.625 45.2404 55.8594 46.153C56.0742 47.0864 56.25 48.4554 56.25 49.2644C56.25 50.0733 56.1133 51.3593 55.957 52.1683C55.7812 52.9772 55.332 54.3255 54.9414 55.1759C54.2773 56.6279 53.7109 57.2709 47.0898 64.3647C43.164 68.5754 39.414 72.4127 38.7695 72.9105C38.125 73.4084 36.9336 74.1966 34.6679 75.5655L30.2734 75.607L23.5351 68.451L26.0156 65.8167C27.5976 64.1158 28.6328 62.8298 28.8867 62.2283C29.1211 61.689 29.2969 60.8593 29.2969 60.2578C29.2969 59.677 29.1211 58.8473 28.9258 58.391C28.7304 57.9346 28.3203 57.3124 28.0078 57.0012C27.6953 56.6901 27.1094 56.296 26.7187 56.1301C26.3086 55.9434 25.5468 55.7982 25 55.7982C24.4726 55.7982 23.6914 55.9434 23.3008 56.1093C22.8515 56.3167 21.5429 57.5198 17.3828 61.9171L10.5468 54.6574L10.2343 52.8943C10.039 51.6912 9.98044 50.6126 10.0586 49.4718C10.1367 48.5591 10.3906 47.1487 10.625 46.3605C10.8593 45.5515 11.3867 44.2447 11.8164 43.4565C12.3437 42.4194 13.3203 41.1956 15.2148 39.1421C16.6797 37.545 18.2226 36.0308 18.6523 35.7612C19.082 35.4915 19.8828 35.1804 20.4101 35.0767C21.0156 34.9522 21.6797 34.9522 22.1679 35.0559C22.8125 35.2219 23.4179 35.7404 25.5469 38.0013C26.9726 39.5155 28.3398 41.1334 28.5547 41.5897C28.8281 42.1705 28.9258 42.6891 28.8867 43.3736C28.8281 43.9958 28.6133 44.6181 28.2226 45.1989C27.8515 45.7589 27.2851 46.2567 26.6601 46.5886C26.1328 46.8583 25.5078 47.0864 25.2929 47.0864C25.0781 47.0864 24.5703 46.9827 24.1797 46.879C23.6719 46.7338 22.8906 46.1115 21.6797 44.9085C20.4297 43.6432 19.7851 43.1454 19.4336 43.1454C19.1601 43.1454 18.7109 43.3736 18.457 43.664C18.164 43.9751 17.9687 44.4107 17.9687 44.7426C17.9883 45.1781 18.3789 45.7382 19.5117 46.9827C20.3711 47.8954 21.4844 48.891 22.0117 49.2021C22.5195 49.4925 23.4375 49.8451 24.0234 49.9696C24.7461 50.1148 25.4883 50.1148 26.2695 49.9696C26.914 49.8659 27.9297 49.4925 29.5898 48.5384L34.6679 53.8899C38.5547 57.9761 40 59.3658 40.8203 59.8014C41.4062 60.1126 42.3828 60.5067 42.9687 60.6726C43.5547 60.8385 44.707 60.9837 45.5078 60.9837C46.3086 60.9837 47.4609 60.8385 48.0469 60.6519C48.6328 60.4652 49.5312 60.0918 50.039 59.8222C50.5664 59.5525 51.3672 58.9303 51.8554 58.4324C52.5 57.8102 52.7539 57.4161 52.7344 56.9805C52.7344 56.6486 52.5195 56.1923 52.1875 55.8604C51.7773 55.4456 51.5429 55.3418 51.1133 55.4456C50.8203 55.5285 50.2148 55.9226 49.7656 56.3167C49.2969 56.7316 48.4375 57.2501 47.8515 57.4783C46.9922 57.8309 46.4648 57.8931 45.1172 57.8309C43.9062 57.7687 43.2226 57.6235 42.5781 57.2709C41.9922 56.9597 39.9219 54.9063 36.4844 51.2764C32.1484 46.6716 31.3086 45.676 31.4648 45.3648C31.5625 45.1781 31.6992 44.4729 31.7578 43.8092C31.8554 42.8965 31.7969 42.2742 31.4453 41.0712C31.0156 39.5362 30.957 39.4533 25.8789 33.9981L27.3828 32.4009C28.2031 31.5297 28.9844 30.5549 29.082 30.223C29.2383 29.8289 29.2383 29.4763 29.082 29.0407C28.9518 28.6258 28.9518 28.3009 29.082 28.0658C29.1797 27.8584 29.707 27.3605 31.25 26.1367L31.7773 26.5516C32.0898 26.8005 32.4609 26.9872 32.6172 26.9872C32.7734 26.9872 33.3398 26.7798 33.8867 26.5101Z" fill="#19CFFC" />
  <path d="M56.8359 26.8002C57.5391 26.4268 58.6719 25.9912 59.375 25.846C60.0781 25.6801 61.0156 25.5349 61.4648 25.5349C61.9727 25.5142 62.2656 25.5971 62.207 25.7216C62.1484 25.846 62.3047 25.9912 62.5391 26.0742C62.793 26.1364 64.4336 27.7129 66.2109 29.5797C67.9883 31.4465 69.7461 33.0851 70.1172 33.2718C70.6055 33.4999 71.1719 33.5414 72.168 33.4585C73.2812 33.3547 73.5938 33.3962 73.8281 33.6866C74.1016 33.9978 73.8867 34.2881 71.5625 36.7772L71.5591 36.7808C69.0429 39.4738 68.9842 39.5366 68.5547 41.0709C68.2031 42.2739 68.1445 42.8962 68.2422 43.8296C68.3008 44.4726 68.4375 45.1778 68.5352 45.3853C68.6914 45.6756 68.2812 46.2149 66.25 48.3721C64.8828 49.8448 63.7305 51.0272 63.6719 51.0272C63.6133 51.0272 63.5547 50.156 63.5547 49.0981C63.5352 47.8536 63.3789 46.6298 63.1055 45.5305C62.8516 44.6178 62.3438 43.2073 61.9531 42.4191C61.3672 41.1953 60.5273 40.1789 52.0508 31.0938L53.8086 29.2685C55 28.0447 55.9766 27.2565 56.8359 26.8002Z" fill="#FD4754" />
  <path d="M71.3867 41.7554C71.582 41.2783 72.7344 39.8678 74.375 38.1255V38.1047C75.8398 36.5491 77.1289 35.263 77.2461 35.263C77.3438 35.2423 78.5352 36.4453 79.8828 37.8973C81.2305 39.3493 82.6758 41.1124 83.1055 41.7968C83.5156 42.4813 84.1016 43.6429 84.3945 44.3896C84.6875 45.1363 85.0781 46.4639 85.2344 47.335C85.4102 48.2269 85.5469 49.6996 85.5469 50.6123C85.5469 51.525 85.4102 52.9562 84.9414 55.2793L80.6641 59.8426L79.0625 58.1417C78.1641 57.2083 77.1094 56.2957 76.7188 56.109C76.3086 55.9431 75.5469 55.7979 75 55.7979C74.4727 55.7979 73.6914 55.9431 73.3008 56.1297C72.8906 56.2957 72.3047 56.6898 71.9922 57.0009C71.6797 57.3121 71.2695 57.9343 71.0742 58.3907C70.8789 58.847 70.7031 59.6767 70.7031 60.2575C70.7031 60.859 70.8789 61.6887 71.1133 62.228C71.3281 62.7465 72.1875 63.8874 74.5117 66.3972L65.918 75.5238L64.8438 75.3786C64.2578 75.3163 63.1641 75.0674 62.4023 74.8393C61.6406 74.6111 60.2344 74.0303 59.2773 73.5532C58.3203 73.0762 56.8164 72.1013 55.957 71.396C55.0977 70.7116 53.8672 69.5707 52.0508 67.6002L60.0586 59.2618C64.4727 54.6778 68.5938 50.3841 70.4102 48.5588L71.7773 49.2848C72.9688 49.9278 73.3398 50.0315 74.6094 50.0315C75.6836 50.0315 76.3867 49.9071 77.2461 49.5752C78.1836 49.1811 78.7695 48.7248 80.2148 47.2106C81.6211 45.7379 82.0312 45.1986 82.0312 44.763C82.0312 44.4104 81.8359 43.9748 81.543 43.6636C81.2695 43.3733 80.8398 43.1451 80.5664 43.1451C80.2148 43.1451 79.5703 43.6636 78.3203 44.9082C77.1094 46.1112 76.3281 46.7335 75.8398 46.8787C75.4297 46.9824 74.9609 47.0861 74.8047 47.0861C74.6484 47.0861 74.1797 46.9824 73.7891 46.8787C73.3789 46.7542 72.7734 46.4224 72.4219 46.1112C72.0898 45.7794 71.6406 45.1571 71.4648 44.7008C71.2695 44.2444 71.0938 43.5599 71.0938 43.2073C71.0938 42.834 71.2305 42.1702 71.3867 41.7554Z" fill="#FD4754" />
  <path d="M62.5391 26.0745C62.3047 25.9915 62.168 25.8255 62.2266 25.7218C62.2852 25.5974 62.6368 25.5559 63.0469 25.6389C63.4571 25.7011 64.2579 25.8878 64.8438 26.0745C65.4297 26.2404 66.4063 26.6552 66.9922 26.9871C67.6954 27.3812 69.004 28.5843 73.5352 33.355L72.2071 33.4794C71.25 33.5624 70.7032 33.5209 70.1563 33.272C69.7266 33.0853 68.1836 31.6541 66.211 29.5799C64.4336 27.7131 62.793 26.1367 62.5391 26.0745Z" fill="#E50058" />
  <path d="M79.7852 37.8146C77.3047 35.1181 77.2657 35.0559 77.8321 34.9936C78.1446 34.9521 78.7696 34.9521 79.1993 35.0144C79.629 35.0559 80.4102 35.3048 80.9571 35.5744C81.6602 35.927 82.6954 36.8812 84.668 39.0384C86.4063 40.9259 87.6758 42.5023 88.1446 43.3528C88.5547 44.0995 89.0821 45.4062 89.336 46.2567C89.5899 47.1071 89.8633 48.5591 89.9414 49.4717C90.0196 50.6125 89.961 51.6911 89.4532 54.6573L82.6172 61.9171L80.6641 59.8428L84.9219 55.2796L85.2344 53.7654C85.4102 52.9564 85.5469 51.5252 85.5469 50.6125C85.5469 49.6999 85.4102 48.2272 85.2344 47.3353C85.0782 46.4641 84.6875 45.1366 84.3946 44.3899C84.1016 43.6431 83.5157 42.4816 83.1055 41.7971C82.6758 41.1126 81.1915 39.308 79.7852 37.8146Z" fill="#E50058" />
  <path d="M65.918 75.4825L70.2149 70.9192L74.5118 66.3767L76.4649 68.4509L69.8243 75.4825L68.6524 75.6277C68.0079 75.7107 67.129 75.6899 65.918 75.4825Z" fill="#E50058" />
  <path d="M19.4336 64.0947L21.8945 61.502C24.0039 59.2825 24.4336 58.9092 24.9609 58.9092C25.332 58.9092 25.7422 59.0751 25.9766 59.324C26.1914 59.5522 26.3672 60.0085 26.3672 60.3611C26.3672 60.8797 25.957 61.4397 21.5039 66.2727L19.4336 64.0947Z" fill="#27ADE2" />
  <path d="M23.0078 77.2666C22.9687 77.0177 23.3594 76.4577 24.0234 75.7732C24.6094 75.1716 25.1367 74.6738 25.1953 74.6738C25.2539 74.6738 25.7812 75.1924 27.4414 76.9555L20.8984 83.9041L19.043 81.9336L21.0352 79.8179C22.3828 78.3867 23.0273 77.557 23.0078 77.2666Z" fill="#CDD2E1" />
  <path d="M77.2461 81.9336L78.3203 80.7928C78.9062 80.1705 79.4336 79.652 79.4922 79.652C79.5508 79.652 79.9805 80.0668 81.3477 81.5188L79.1016 83.9041L77.2461 81.9336Z" fill="#CDD2E1" />
  <path d="M31.2695 2.28379C31.4062 2.07637 31.6406 1.78598 31.8164 1.68227C31.9922 1.55781 32.3438 1.4541 32.6172 1.4541C32.8906 1.4541 33.3008 1.66152 33.5352 1.91043C33.8672 2.30453 34.0625 3.13422 34.5703 6.53595C34.9219 8.8176 35.2539 10.7466 35.3125 10.8296C35.3906 10.9126 36.2891 9.99991 37.3047 8.79686C38.3203 7.59381 39.3359 6.5567 39.5508 6.49447C39.7656 6.43224 40.1367 6.45299 40.3711 6.51521C40.6055 6.59818 40.9375 6.9508 41.0938 7.32416C41.2695 7.67678 41.7969 10.6844 42.2852 14.0032C43.1836 19.9769 43.1836 20.0184 42.8125 20.537C42.5195 20.9311 42.2656 21.0555 41.6992 21.0555C41.1328 21.0555 40.8789 20.9311 40.5859 20.537C40.332 20.1636 40.0586 18.8983 39.6289 16.0774C39.3164 13.8995 39.0039 12.0119 38.9648 11.8667C38.9062 11.7215 38.0469 12.5512 36.9531 13.8165C35.918 15.0403 34.8633 16.1189 34.6094 16.2018C34.3359 16.3263 34.0039 16.3056 33.6914 16.1189C33.418 15.9944 33.1055 15.6418 33.0078 15.3514C32.9102 15.061 32.4414 12.0949 31.9531 8.77612C31.25 3.96391 31.0938 2.61567 31.2695 2.28379Z" fill="white" />
  <path d="M57.4414 9.79249C57.5977 9.54358 59.7852 7.55233 62.3047 5.39513C65.7812 2.40825 67.0312 1.4541 67.4219 1.4541C67.7539 1.4541 68.1641 1.66152 68.457 1.97266C68.7305 2.26305 68.9453 2.65715 68.9453 2.86458C68.9258 3.05126 68.8281 3.42462 68.6914 3.65278C68.5547 3.90169 67.0703 5.31216 65.3711 6.76412C63.6914 8.23682 62.3633 9.5021 62.4414 9.56432C62.5391 9.64729 63.75 9.95843 65.1367 10.2488C67.207 10.7051 67.7539 10.8918 68.1055 11.3067C68.3594 11.5971 68.5547 11.9704 68.5547 12.1364C68.5547 12.3023 68.4766 12.6342 68.3594 12.8623C68.2422 13.0905 66.3477 14.8536 64.1016 16.7619C61.875 18.6702 59.7852 20.454 59.4727 20.7237C59.082 21.0348 58.6719 21.1592 58.2227 21.1178C57.7734 21.0763 57.4219 20.8689 57.1484 20.4748C56.8164 20.0184 56.7773 19.811 56.9336 19.3339C57.0508 19.0021 58.3984 17.6745 63.6719 13.0698L62.5391 12.8416C61.9336 12.7171 60.7227 12.4475 59.8633 12.2401C59.0039 12.0534 58.1055 11.7837 57.8516 11.6593C57.6172 11.5141 57.3633 11.1615 57.3047 10.8503C57.2266 10.4977 57.2852 10.0829 57.4414 9.79249Z" fill="white" />
  <path d="M31.6602 87.327C31.7578 86.9952 33.5742 85.2943 36.4453 82.826C40.4102 79.3828 41.1523 78.8227 41.7188 78.8227C42.207 78.8227 42.4805 78.9679 42.7734 79.4035C43.0078 79.7146 43.1836 80.1087 43.1836 80.2747C43.1836 80.4406 43.0078 80.814 42.8125 81.1044C42.5977 81.3948 41.1133 82.7845 39.4727 84.2157C37.8516 85.6469 36.543 86.8292 36.5625 86.8707C36.6016 86.8915 37.8125 87.2026 39.2578 87.5552C40.7031 87.8871 42.0117 88.2812 42.168 88.4264C42.3047 88.5716 42.5 88.8412 42.5977 89.0487C42.6953 89.2353 42.7148 89.6502 42.6172 89.9613C42.5195 90.3554 41.1328 91.6622 37.9297 94.4209C35.4492 96.5574 33.2031 98.4242 32.9492 98.5486C32.6172 98.7353 32.3828 98.7145 31.9336 98.5071C31.6211 98.3412 31.25 97.9886 31.1133 97.6982C30.9375 97.3041 30.9375 97.0552 31.1133 96.6196C31.25 96.3292 32.7734 94.8357 34.5312 93.3008C36.2891 91.7866 37.6367 90.4799 37.5586 90.4176C37.4805 90.3554 36.2695 90.0443 34.8633 89.7331C33.457 89.422 32.207 89.0487 32.0508 88.9242C31.9141 88.779 31.7188 88.4886 31.6406 88.2604C31.5625 88.0323 31.5625 87.6174 31.6602 87.327Z" fill="white" />
  <path d="M56.8164 80.0465C56.7969 79.9635 56.9922 79.6732 57.2266 79.362C57.5195 78.9679 57.832 78.8227 58.3203 78.8227C58.7305 78.8227 59.1406 78.9887 59.375 79.2376C59.5898 79.4657 59.8242 80.0673 59.8828 80.648C59.9609 81.1873 60.2539 83.0956 60.5273 84.9002C60.8008 86.7048 61.1133 88.1567 61.2305 88.1152C61.3281 88.0738 62.2266 87.0989 63.2227 85.9373C64.8047 84.0705 65.1172 83.8009 65.6641 83.8009C66.0352 83.7801 66.4453 83.9461 66.6211 84.1535C66.7969 84.3609 66.9922 84.7135 67.0703 84.9417C67.1289 85.1699 67.5781 88.0323 68.0664 91.3303C68.7695 96.101 68.9062 97.3663 68.7305 97.7604C68.5938 98.0093 68.3984 98.279 68.2812 98.3619C68.1641 98.4449 67.7344 98.5279 67.3242 98.5279C66.7773 98.5279 66.5234 98.4034 66.3281 98.0715C66.1719 97.8019 65.7617 95.7691 65.4297 93.5497C65.1172 91.3303 64.7852 89.3598 64.7461 89.1938C64.668 88.9657 64.3164 89.2768 63.5352 90.231C62.9102 90.9777 62.0117 92.0148 61.5039 92.5748C60.8398 93.2801 60.4492 93.5497 60.0391 93.5497C59.7266 93.5705 59.3359 93.4045 59.1602 93.1971C58.9844 92.9897 58.7891 92.6371 58.7305 92.4089C58.6523 92.1807 58.2031 89.339 57.7148 86.0825C57.2266 82.826 56.8164 80.1087 56.8164 80.0465Z" fill="white" />
  <path d="M72.5586 76.9555L73.6328 75.8147C74.2187 75.1924 74.7461 74.6738 74.8047 74.6738C74.8633 74.6738 75.9375 75.7732 79.4922 79.5483L77.2461 81.9336L72.5586 76.9555Z" fill="#F2F6FC" />
  <path d="M18.8477 81.7262C18.7174 81.5879 19.362 80.7513 20.7812 79.2164C22.4219 77.474 22.9297 77.0177 22.9883 77.3081C23.0469 77.557 22.4414 78.3452 21.0547 79.7972C19.7135 81.2215 18.9779 81.8645 18.8477 81.7262Z" fill="#F2F6FC" />
  <path d="M73.6328 60.3611C73.6328 60.0085 73.8086 59.5522 74.0234 59.324C74.2578 59.0751 74.668 58.9092 75.0391 58.9092C75.6055 58.9092 76.0156 59.2618 80.5664 64.0947L78.4961 66.2727L76.0742 63.6384C74.043 61.4397 73.6328 60.8797 73.6328 60.3611Z" fill="#C4186A" />
  <path d="M122.52 69V36.6H127.04V51.88L134.48 36.6H138.68L132.28 50.88L139.72 69H135.32L129.12 53.8L127.04 57.56V69H122.52ZM142.565 69V36.6H147.005V69H142.565ZM160.367 69.36C158.073 69.36 156.287 68.88 155.007 67.92C153.753 66.96 152.873 65.6667 152.367 64.04C151.887 62.4133 151.647 60.6 151.647 58.6V47.16C151.647 44.9733 151.887 43.0667 152.367 41.44C152.873 39.8133 153.753 38.56 155.007 37.68C156.287 36.7733 158.073 36.32 160.367 36.32C162.393 36.32 163.993 36.6933 165.167 37.44C166.367 38.1867 167.22 39.2533 167.727 40.64C168.26 42.0267 168.527 43.6933 168.527 45.64V48.2H164.247V45.92C164.247 44.72 164.18 43.6667 164.047 42.76C163.94 41.8267 163.62 41.1067 163.087 40.6C162.553 40.0933 161.66 39.84 160.407 39.84C159.127 39.84 158.193 40.12 157.607 40.68C157.02 41.2133 156.633 41.9867 156.447 43C156.287 43.9867 156.207 45.1467 156.207 46.48V59.32C156.207 60.9467 156.34 62.24 156.607 63.2C156.873 64.1333 157.313 64.8 157.927 65.2C158.54 65.6 159.367 65.8 160.407 65.8C161.633 65.8 162.513 65.5333 163.047 65C163.58 64.44 163.913 63.68 164.047 62.72C164.18 61.76 164.247 60.64 164.247 59.36V56.96H168.527V59.36C168.527 61.3333 168.287 63.08 167.807 64.6C167.327 66.0933 166.5 67.2667 165.327 68.12C164.153 68.9467 162.5 69.36 160.367 69.36ZM172.833 69V36.6H177.353V51.88L184.793 36.6H188.993L182.593 50.88L190.033 69H185.633L179.433 53.8L177.353 57.56V69H172.833ZM192.637 69V36.6H200.077C201.544 36.6 202.811 36.76 203.877 37.08C204.971 37.4 205.877 37.8933 206.597 38.56C207.317 39.2267 207.851 40.08 208.197 41.12C208.544 42.1333 208.717 43.3333 208.717 44.72C208.717 46.0533 208.544 47.2133 208.197 48.2C207.877 49.16 207.371 49.92 206.677 50.48C206.011 51.04 205.144 51.4 204.077 51.56C205.384 51.8533 206.437 52.36 207.237 53.08C208.037 53.7733 208.624 54.68 208.997 55.8C209.397 56.8933 209.597 58.2133 209.597 59.76C209.597 61.1467 209.437 62.4133 209.117 63.56C208.797 64.7067 208.291 65.68 207.597 66.48C206.931 67.28 206.064 67.9067 204.997 68.36C203.957 68.7867 202.717 69 201.277 69H192.637ZM197.157 65.76H200.197C202.224 65.76 203.571 65.2933 204.237 64.36C204.931 63.4 205.277 61.8667 205.277 59.76C205.277 58.4 205.091 57.2667 204.717 56.36C204.371 55.4267 203.797 54.7333 202.997 54.28C202.224 53.8 201.171 53.56 199.837 53.56H197.157V65.76ZM197.157 50.12H199.837C201.117 50.12 202.117 49.9467 202.837 49.6C203.557 49.2267 204.064 48.64 204.357 47.84C204.651 47.04 204.797 46 204.797 44.72C204.797 43.2267 204.571 42.1467 204.117 41.48C203.664 40.8133 202.957 40.4 201.997 40.24C201.037 40.0533 199.784 39.96 198.237 39.96H197.157V50.12ZM221.894 69.36C219.707 69.36 217.96 68.9333 216.654 68.08C215.347 67.2267 214.414 66.0133 213.854 64.44C213.294 62.84 213.014 60.9733 213.014 58.84V46.56C213.014 44.4267 213.294 42.6 213.854 41.08C214.44 39.5333 215.374 38.36 216.654 37.56C217.96 36.7333 219.707 36.32 221.894 36.32C224.08 36.32 225.814 36.7333 227.094 37.56C228.374 38.3867 229.294 39.56 229.854 41.08C230.44 42.6 230.734 44.4267 230.734 46.56V58.88C230.734 60.9867 230.44 62.8267 229.854 64.4C229.294 65.9733 228.374 67.2 227.094 68.08C225.814 68.9333 224.08 69.36 221.894 69.36ZM221.894 65.8C223.094 65.8 224 65.56 224.614 65.08C225.227 64.5733 225.64 63.88 225.854 63C226.067 62.0933 226.174 61.04 226.174 59.84V45.64C226.174 44.44 226.067 43.4133 225.854 42.56C225.64 41.68 225.227 41.0133 224.614 40.56C224 40.08 223.094 39.84 221.894 39.84C220.694 39.84 219.774 40.08 219.134 40.56C218.52 41.0133 218.107 41.68 217.894 42.56C217.68 43.4133 217.574 44.44 217.574 45.64V59.84C217.574 61.04 217.68 62.0933 217.894 63C218.107 63.88 218.52 64.5733 219.134 65.08C219.774 65.56 220.694 65.8 221.894 65.8ZM232.903 69L239.663 52.04L233.023 36.6H237.223L242.143 48.04L246.623 36.6H250.823L244.023 52.4L251.143 69H246.943L241.663 56.8L237.103 69H232.903ZM254.2 69V36.6H266.76V39.96H258.72V50.68H265.24V53.88H258.72V65.76H266.84V69H254.2ZM270.489 69V36.6H277.009C279.169 36.6 280.955 36.8933 282.369 37.48C283.782 38.04 284.822 38.96 285.489 40.24C286.182 41.4933 286.529 43.1467 286.529 45.2C286.529 46.4533 286.395 47.6 286.129 48.64C285.862 49.6533 285.435 50.52 284.849 51.24C284.262 51.9333 283.489 52.44 282.529 52.76L287.129 69H282.769L278.529 53.8H275.009V69H270.489ZM275.009 50.56H276.729C278.009 50.56 279.049 50.4 279.849 50.08C280.649 49.76 281.235 49.2133 281.609 48.44C281.982 47.6667 282.169 46.5867 282.169 45.2C282.169 43.3067 281.822 41.9467 281.129 41.12C280.435 40.2667 279.062 39.84 277.009 39.84H275.009V50.56Z" fill="white" />
</svg>